<svg version="1.1" id="Layer_1" xmlns="http://www.w3.org/2000/svg" xmlns:xlink="http://www.w3.org/1999/xlink" x="0px" y="0px" width="100%" viewBox="0 0 837 755" enable-background="new 0 0 837 755" xml:space="preserve">

<path fill="#EA1D23" opacity="1.000000" stroke="none" d="
M332.816956,684.117737 
	C287.866150,671.047913 247.841614,649.603577 212.494949,619.548340 
	C170.476166,583.819885 139.323288,540.284058 119.288696,488.853210 
	C107.707558,459.123230 100.985260,428.380402 98.212242,396.536987 
	C95.556648,366.042023 97.631630,335.930756 103.660538,306.183075 
	C112.925591,260.467712 131.342941,218.509064 158.977798,180.794296 
	C193.971558,133.036423 238.480179,96.948151 292.732391,73.178650 
	C321.024292,60.783127 350.585815,52.750793 381.316223,48.894936 
	C413.415863,44.867264 445.294830,45.556408 477.193970,50.959717 
	C530.049255,59.912739 577.648804,80.861137 620.133423,113.316147 
	C661.457947,144.884995 693.332703,184.286331 715.917542,231.183533 
	C728.462891,257.234039 737.371948,284.510986 742.470276,312.899414 
	C746.974243,337.978394 748.499451,363.291565 747.164307,388.873718 
	C745.042480,429.530121 735.553955,468.260132 718.909119,505.266113 
	C699.431824,548.569397 671.488403,585.649109 635.695068,616.828308 
	C605.373047,643.241577 571.254761,663.255188 533.529175,677.075256 
	C509.907166,685.728760 485.644653,692.250671 460.524445,694.088379 
	C440.160431,695.578186 419.635590,696.437256 399.252625,695.679077 
	C376.865875,694.846313 354.786957,690.561768 332.816956,684.117737 
M506.864227,204.292267 
	C495.320831,209.395279 484.817627,215.977676 476.632660,225.785736 
	C474.679169,228.126602 472.837860,228.666931 469.752930,227.453690 
	C462.672333,224.669052 455.485870,221.914978 448.094177,220.250565 
	C443.731415,219.268158 442.852997,217.499008 442.872009,213.579987 
	C442.979431,191.418869 442.961365,169.256470 442.845917,147.095230 
	C442.790222,136.400436 433.683472,127.505707 423.005829,127.386650 
	C411.185913,127.254860 401.961090,136.421936 401.910431,148.614166 
	C401.819061,170.609085 401.867767,192.604584 401.853729,214.599838 
	C401.852264,216.914627 402.166290,219.033936 398.874237,219.943939 
	C391.063599,222.102997 383.422455,224.871658 375.626587,227.090973 
	C374.109039,227.522964 371.515411,227.208908 370.576447,226.180954 
	C358.055908,212.473938 342.796967,203.756500 324.673492,199.766479 
	C311.705444,196.911469 301.403290,203.069290 298.319550,215.960571 
	C295.888123,226.124908 303.773560,237.007965 315.244904,239.954056 
	C320.178375,241.221069 325.127380,242.919220 329.632599,245.261490 
	C339.602570,250.444855 339.707764,251.765793 332.624298,260.069733 
	C332.516388,260.196228 332.382111,260.300995 332.279297,260.431061 
	C316.566223,280.299408 307.042725,302.615448 306.743561,328.176575 
	C306.378937,359.332336 306.803101,390.497345 306.441284,421.653168 
	C306.180908,444.075928 311.790802,464.715912 323.496277,483.721222 
	C325.334137,486.705170 324.682251,488.305115 322.223358,490.316223 
	C309.360046,500.837006 301.511230,514.247986 298.748413,530.745605 
	C296.518860,544.058838 302.796692,554.105286 315.629395,556.604797 
	C324.777435,558.386536 337.366669,552.073547 339.046356,538.787781 
	C340.057800,530.787781 344.407715,524.604980 350.748566,519.757019 
	C352.886475,518.122498 354.865479,517.381104 357.487518,519.207886 
	C369.919617,527.869141 383.657349,533.582703 398.491608,536.571411 
	C401.219086,537.120911 401.974518,538.371521 401.916077,540.966003 
	C401.781067,546.961487 401.713196,552.968811 401.934448,558.959717 
	C402.384705,571.151794 411.145874,579.231384 423.267792,579.222412 
	C434.084076,579.214417 443.616394,568.935974 442.963562,558.344116 
	C442.625916,552.866089 443.068756,547.343018 442.835846,541.854065 
	C442.697815,538.601074 443.811066,536.920349 447.036804,536.324524 
	C461.988129,533.562744 475.512543,527.369629 487.950378,518.777710 
	C490.481628,517.029175 492.302551,517.318420 494.646088,518.919556 
	C501.919769,523.888977 506.174835,530.556580 507.527924,539.333557 
	C509.178253,550.038879 518.881104,557.814270 528.947144,556.951843 
	C540.457947,555.965637 548.769409,547.272217 548.150085,535.589661 
	C547.141296,516.561768 538.207825,501.351715 523.521545,489.589966 
	C520.403198,487.092651 520.211060,485.523743 522.141235,482.368805 
	C533.621948,463.603546 538.896057,443.108490 538.853638,421.156616 
	C538.801514,394.162537 539.007263,367.166748 538.754150,340.174927 
	C538.668884,331.080200 538.148071,321.896698 536.733215,312.926178 
	C533.581238,292.941437 524.930542,275.257874 512.145569,259.658905 
	C506.450226,252.710098 506.303680,252.205109 513.859558,247.042984 
	C515.500977,245.921570 517.211060,244.785217 519.054260,244.096497 
	C524.482483,242.068253 530.043274,240.393066 535.461060,238.339249 
	C545.447449,234.553467 550.584412,223.738358 547.421021,213.508057 
	C544.173462,203.005630 533.689636,196.705566 523.268066,199.279251 
	C517.973450,200.586807 512.810852,202.429153 506.864227,204.292267 
z" data-index="0" style="opacity: 1; visibility: visible; fill: rgb(0, 0, 0);"></path>
<path fill="#F7F5F5" opacity="1.000000" stroke="none" d="
M507.226379,204.161011 
	C512.810852,202.429153 517.973450,200.586807 523.268066,199.279251 
	C533.689636,196.705566 544.173462,203.005630 547.421021,213.508057 
	C550.584412,223.738358 545.447449,234.553467 535.461060,238.339249 
	C530.043274,240.393066 524.482483,242.068253 519.054260,244.096497 
	C517.211060,244.785217 515.500977,245.921570 513.859558,247.042984 
	C506.303680,252.205109 506.450226,252.710098 512.145569,259.658905 
	C524.930542,275.257874 533.581238,292.941437 536.733215,312.926178 
	C538.148071,321.896698 538.668884,331.080200 538.754150,340.174927 
	C539.007263,367.166748 538.801514,394.162537 538.853638,421.156616 
	C538.896057,443.108490 533.621948,463.603546 522.141235,482.368805 
	C520.211060,485.523743 520.403198,487.092651 523.521545,489.589966 
	C538.207825,501.351715 547.141296,516.561768 548.150085,535.589661 
	C548.769409,547.272217 540.457947,555.965637 528.947144,556.951843 
	C518.881104,557.814270 509.178253,550.038879 507.527924,539.333557 
	C506.174835,530.556580 501.919769,523.888977 494.646088,518.919556 
	C492.302551,517.318420 490.481628,517.029175 487.950378,518.777710 
	C475.512543,527.369629 461.988129,533.562744 447.036804,536.324524 
	C443.811066,536.920349 442.697815,538.601074 442.835846,541.854065 
	C443.068756,547.343018 442.625916,552.866089 442.963562,558.344116 
	C443.616394,568.935974 434.084076,579.214417 423.267792,579.222412 
	C411.145874,579.231384 402.384705,571.151794 401.934448,558.959717 
	C401.713196,552.968811 401.781067,546.961487 401.916077,540.966003 
	C401.974518,538.371521 401.219086,537.120911 398.491608,536.571411 
	C383.657349,533.582703 369.919617,527.869141 357.487518,519.207886 
	C354.865479,517.381104 352.886475,518.122498 350.748566,519.757019 
	C344.407715,524.604980 340.057800,530.787781 339.046356,538.787781 
	C337.366669,552.073547 324.777435,558.386536 315.629395,556.604797 
	C302.796692,554.105286 296.518860,544.058838 298.748413,530.745605 
	C301.511230,514.247986 309.360046,500.837006 322.223358,490.316223 
	C324.682251,488.305115 325.334137,486.705170 323.496277,483.721222 
	C311.790802,464.715912 306.180908,444.075928 306.441284,421.653168 
	C306.803101,390.497345 306.378937,359.332336 306.743561,328.176575 
	C307.042725,302.615448 316.566223,280.299408 332.279297,260.431061 
	C332.382111,260.300995 332.516388,260.196228 332.624298,260.069733 
	C339.707764,251.765793 339.602570,250.444855 329.632599,245.261490 
	C325.127380,242.919220 320.178375,241.221069 315.244904,239.954056 
	C303.773560,237.007965 295.888123,226.124908 298.319550,215.960571 
	C301.403290,203.069290 311.705444,196.911469 324.673492,199.766479 
	C342.796967,203.756500 358.055908,212.473938 370.576447,226.180954 
	C371.515411,227.208908 374.109039,227.522964 375.626587,227.090973 
	C383.422455,224.871658 391.063599,222.102997 398.874237,219.943939 
	C402.166290,219.033936 401.852264,216.914627 401.853729,214.599838 
	C401.867767,192.604584 401.819061,170.609085 401.910431,148.614166 
	C401.961090,136.421936 411.185913,127.254860 423.005829,127.386650 
	C433.683472,127.505707 442.790222,136.400436 442.845917,147.095230 
	C442.961365,169.256470 442.979431,191.418869 442.872009,213.579987 
	C442.852997,217.499008 443.731415,219.268158 448.094177,220.250565 
	C455.485870,221.914978 462.672333,224.669052 469.752930,227.453690 
	C472.837860,228.666931 474.679169,228.126602 476.632660,225.785736 
	C484.817627,215.977676 495.320831,209.395279 507.226379,204.161011 
M484.987671,325.744751 
	C480.630493,316.801666 473.089417,313.160309 463.544037,313.006561 
	C457.406616,312.907684 451.266327,312.987976 444.688873,312.987976 
	C444.549927,310.603455 444.343079,308.655579 444.338196,306.707184 
	C444.308075,294.709015 444.497162,282.707642 444.279175,270.713379 
	C444.016357,256.251678 430.467010,246.395096 416.542633,250.280350 
	C406.378052,253.116516 400.564453,261.060852 400.429138,272.753693 
	C400.290314,284.750214 400.287323,296.750763 400.447266,308.746582 
	C400.491241,312.046509 399.418182,313.156433 396.149384,313.040619 
	C390.490906,312.840088 384.816772,312.882233 379.154572,313.028961 
	C367.697144,313.325897 358.097015,322.928375 357.941193,334.093689 
	C357.760498,347.041748 366.003906,356.391602 378.401672,356.999298 
	C384.386536,357.292633 390.394379,357.220520 396.389801,357.148102 
	C399.075897,357.115662 400.396118,357.984680 400.383606,360.846283 
	C400.328247,373.510742 400.305420,386.176178 400.420044,398.839905 
	C400.447083,401.826050 398.988464,402.530060 396.451599,402.527832 
	C391.286835,402.523315 386.121979,402.600494 380.957214,402.650787 
	C373.228149,402.726074 366.529572,405.083466 361.930939,411.663635 
	C356.937225,418.809174 356.345032,426.522888 359.971649,434.350372 
	C363.876953,442.779297 371.172821,446.411743 380.037506,446.898132 
	C386.628510,447.259735 393.255249,446.969330 400.307892,446.969330 
	C400.307892,449.333618 400.297607,450.965820 400.309540,452.597900 
	C400.397156,464.592041 400.019135,476.613312 400.708252,488.572968 
	C401.440704,501.285034 411.546997,509.500061 424.399841,508.891632 
	C435.344574,508.373535 444.241241,498.514923 444.326691,486.659607 
	C444.409576,475.161774 444.550812,463.658844 444.285736,452.166901 
	C444.187164,447.893524 445.649719,446.872253 449.707947,446.885376 
	C456.833923,446.908447 464.111816,447.023712 471.053619,445.686249 
	C480.984039,443.772919 488.135895,433.221069 487.360870,423.429047 
	C486.524536,412.862366 478.453369,404.092438 468.052948,403.157257 
	C461.773865,402.592743 455.415497,402.761932 449.096283,402.851501 
	C445.759369,402.898865 444.245605,401.873627 444.285950,398.291351 
	C444.422852,386.127960 444.423737,373.961090 444.282623,361.797821 
	C444.241852,358.285217 445.572784,357.108612 448.994995,357.187439 
	C454.819763,357.321594 460.660645,357.273743 466.480530,356.999725 
	C482.000702,356.268921 491.550781,340.622528 484.987671,325.744751 
z" data-index="1" style="opacity: 1;"></path>
<path fill="#E81F25" opacity="1.000000" stroke="none" d="
M485.095215,326.120850 
	C491.550781,340.622528 482.000702,356.268921 466.480530,356.999725 
	C460.660645,357.273743 454.819763,357.321594 448.994995,357.187439 
	C445.572784,357.108612 444.241852,358.285217 444.282623,361.797821 
	C444.423737,373.961090 444.422852,386.127960 444.285950,398.291351 
	C444.245605,401.873627 445.759369,402.898865 449.096283,402.851501 
	C455.415497,402.761932 461.773865,402.592743 468.052948,403.157257 
	C478.453369,404.092438 486.524536,412.862366 487.360870,423.429047 
	C488.135895,433.221069 480.984039,443.772919 471.053619,445.686249 
	C464.111816,447.023712 456.833923,446.908447 449.707947,446.885376 
	C445.649719,446.872253 444.187164,447.893524 444.285736,452.166901 
	C444.550812,463.658844 444.409576,475.161774 444.326691,486.659607 
	C444.241241,498.514923 435.344574,508.373535 424.399841,508.891632 
	C411.546997,509.500061 401.440704,501.285034 400.708252,488.572968 
	C400.019135,476.613312 400.397156,464.592041 400.309540,452.597900 
	C400.297607,450.965820 400.307892,449.333618 400.307892,446.969330 
	C393.255249,446.969330 386.628510,447.259735 380.037506,446.898132 
	C371.172821,446.411743 363.876953,442.779297 359.971649,434.350372 
	C356.345032,426.522888 356.937225,418.809174 361.930939,411.663635 
	C366.529572,405.083466 373.228149,402.726074 380.957214,402.650787 
	C386.121979,402.600494 391.286835,402.523315 396.451599,402.527832 
	C398.988464,402.530060 400.447083,401.826050 400.420044,398.839905 
	C400.305420,386.176178 400.328247,373.510742 400.383606,360.846283 
	C400.396118,357.984680 399.075897,357.115662 396.389801,357.148102 
	C390.394379,357.220520 384.386536,357.292633 378.401672,356.999298 
	C366.003906,356.391602 357.760498,347.041748 357.941193,334.093689 
	C358.097015,322.928375 367.697144,313.325897 379.154572,313.028961 
	C384.816772,312.882233 390.490906,312.840088 396.149384,313.040619 
	C399.418182,313.156433 400.491241,312.046509 400.447266,308.746582 
	C400.287323,296.750763 400.290314,284.750214 400.429138,272.753693 
	C400.564453,261.060852 406.378052,253.116516 416.542633,250.280350 
	C430.467010,246.395096 444.016357,256.251678 444.279175,270.713379 
	C444.497162,282.707642 444.308075,294.709015 444.338196,306.707184 
	C444.343079,308.655579 444.549927,310.603455 444.688873,312.987976 
	C451.266327,312.987976 457.406616,312.907684 463.544037,313.006561 
	C473.089417,313.160309 480.630493,316.801666 485.095215,326.120850 
z" data-index="2" style="opacity: 1; visibility: visible; fill: rgb(0, 0, 0);"></path>
</svg>